# xmcd
#
# Track frame offsets:
#       150
#       14950
#       29075
#       51655
#       61922
#       79612
#       96995
#       120100
#       139162
#       156605
#
# Disc length: 2464 seconds
#
# Revision: 4
# Processed by: cddbd v1.5.2PL0 Copyright (c) Steve Scherf et al.
# Submitted via: SMTP 1.0
#
DISCID=90099e0a
DTITLE=Various Artist - The Blues [CD4]
DYEAR=1994
DGENRE=Blues
TTITLE0=Memphis Slim - Rockin' Chair Blues
TTITLE1=Jimmy Witherspoon - Ain't Nobody's Business
TTITLE2=Fred McDowell - Some Day Baby
TTITLE3=John Lee Hooker - Big Legs, Tight Skirts
TTITLE4=Eddie Cleanhead Vinson - Just A Dream
TTITLE5=Sammy Price - How Long Blues
TTITLE6=Otis Spam - The Hard Way
TTITLE7=Jay McShann - Hootie Blues
TTITLE8=Louis Jordan - Gonna Move To The Outskirts Of Town
TTITLE9=Lightnin' Hopkins - Wonder Why
EXTD=
EXTT0=
EXTT1=
EXTT2=
EXTT3=
EXTT4=
EXTT5=
EXTT6=
EXTT7=
EXTT8=
EXTT9=
PLAYORDER=
